<?xml version="1.0" encoding="utf-8"?>
<?xml-stylesheet type="text/xsl" href="rss1.xsl"?>
<rss version="2.0" xmlns:atom="http://www.w3.org/2005/Atom" xmlns:content="http://purl.org/rss/1.0/modules/content/" xmlns:dc="http://purl.org/dc/elements/1.1/" xmlns:media="http://search.yahoo.com/mrss/">
<channel>
 <title>Getty</title>
 <link>http://www.gettyimg.com/</link>
 <atom:link href="http://www.gettyimg.com/" rel="self" type="application/rss+xml" />

 
                <item>
                <title><![CDATA[【Albums (lossy)】Tones And I - Welcome To The Madhouse (Deluxe Edition) (2021) [Qobuz 320kbps] [MP3]]]></title>
                <link><![CDATA[https://sharemania.us/threads/tones-and-i-welcome-to-the-madhouse-deluxe-edition-2021-qobuz-320kbps-mp3.250962/]]></link>
                <description><![CDATA[<article>
<blockquote class="messageText SelectQuoteContainer ugc baseHtml">
Release Date: 2021<br>
Source: <a href="https://www.qobuz.com/us-en/album/welcome-to-the-madhouse-tones-and-i/fp782vi7h36db" target="_blank" class="externalLink" rel="nofollow">Qobuz</a><br>
Format: MP3<br>
<br>
Tracklist:<br>
<br>
01. Welcome To The Madhouse<br>
02. Lonely<br>
03. Won't Sleep<br>
04. Westside Lobby<br>
05. Fly Away<br>
06. Sad Songs<br>
07. Just A Mess<br>
08. Child's Play<br>
09. Not Going Home<br>
10. Dark Waters<br>
11. Cloudy Day<br>
12. You Don't Know My Name<br>
13. Fall Apart<br>
14. Bars (RIP T)<br>
15. The Kids Are Coming<br>
16. Dance Monkey<br>
17. Colourblind<br>
18. Johnny Run Away<br>
19. Jimmy<br>
20. Never Seen The Rain<br>
<br>
<div class="bbCodeBlock bbCodeVfcHH HiddenContent">
<div class="attribution type">Hidden Content:</div>
<blockquote>You must reply before you can see the hidden data contained here.</blockquote>
</div>
<div class="messageTextEndMarker">&nbsp;</div>
</blockquote>
</article>]]></description>
                <author><![CDATA[phechft]]></author>
                </item>

                
                <item>
                <title><![CDATA[【HD Live Performances】FEED - Global Citizen Festival (2022) 1080i HDTV Backhaul MPA2.0 H.264-TrollHD]]></title>
                <link><![CDATA[https://sharemania.us/threads/global-citizen-festival-2022-1080i-hdtv-backhaul-mpa2-0-h-264-trollhd.250961/]]></link>
                <description><![CDATA[<article>
<blockquote class="messageText SelectQuoteContainer ugc baseHtml">
<div style="padding-left: 30px"><div style="padding-left: 30px"><div style="padding-left: 30px"><div style="padding-left: 30px"><div style="padding-left: 30px"><b><span style="font-size: 26px"><span style="color: rgb(255, 77, 77)">Global Citizen Festival (2022) </span></span></b>​</div></div></div><b><span style="font-size: 26px"><span style="color: rgb(255, 77, 77)">1080i HDTV Backhaul MPA2.0 H.264-TrollHD</span></span></b>​</div></div><br>
<img src="https://images2.imgbox.com/7d/83/IGmuUZOb_o.jpg" class="bbCodeImage LbImage" alt="[​IMG]" data-url="https://images2.imgbox.com/7d/83/IGmuUZOb_o.jpg" style=""><br>
<br>
<div class="bbCodeBlock bbCodeCode">
<div class="type">Code:</div>
<pre>General
Unique ID                      : 257076344933709373804343887114212165670 (0xC1671A62CE17270DF5700DEFA7A34826)
Format                         : Matroska
Format version                 : Version 4
File size                      : 65.5 GiB
Duration                       : 9 h 59 min
Overall bit rate mode          : Constant
Overall bit rate               : 15.6 Mb/s
Encoded date                   : UTC 2024-06-08 07:35:44
Writing application            : mkvmerge v77.0 ('Elemental') 64-bit
Writing library                : libebml v1.4.4 + libmatroska v1.7.1

Video
ID                             : 1
Format                         : AVC
Format/Info                    : Advanced Video Codec
Format profile                 : High@L4
Format settings                : CABAC / 3 Ref Frames
Format settings, CABAC         : Yes
Format settings, Reference fra : 3 frames
Codec ID                       : V_MPEG4/ISO/AVC
Duration                       : 9 h 59 min
Bit rate mode                  : Constant
Bit rate                       : 15.5 Mb/s
Width                          : 1 920 pixels
Height                         : 1 080 pixels
Display aspect ratio           : 16:9
Frame rate mode                : Variable
Frame rate                     : 59.940 (60000/1001) FPS
Original frame rate            : 29.970 (30000/1001) FPS
Color space                    : YUV
Chroma subsampling             : 4:2:0
Bit depth                      : 8 bits
Scan type                      : Interlaced
Scan type, store method        : Separated fields
Scan order                     : Top Field First
Bits/(Pixel*Frame)             : 0.125
Stream size                    : 64.6 GiB (99%)
Language                       : English
Default                        : Yes
Forced                         : No
Color range                    : Limited
Color primaries                : BT.709
Transfer characteristics       : BT.709
Matrix coefficients            : BT.709

Audio
ID                             : 2
Format                         : MPEG Audio
Format version                 : Version 1
Format profile                 : Layer 2
Codec ID                       : A_MPEG/L2
Codec ID/Hint                  : MP2
Duration                       : 9 h 59 min
Bit rate mode                  : Constant
Bit rate                       : 192 kb/s
Channel(s)                     : 2 channels
Sampling rate                  : 48.0 kHz
Frame rate                     : 41.667 FPS (1152 SPF)
Compression mode               : Lossy
Stream size                    : 823 MiB (1%)
Language                       : English
Default                        : No
Forced                         : No

</pre>
</div>
<div class="bbCodeBlock bbCodeVfcHH HiddenContent">
<div class="attribution type">Hidden Content:</div>
<blockquote>You must either reply or click 'Like' to see the hidden information contained here.</blockquote>
</div><br>
<br>
<b><span style="color: rgb(255, 77, 77)">Credits goes to <a href="https://sharemania.us/members/1219/" class="username" data-user="1219, @TrollHD">@TrollHD</a> !!!<br>
<br>
<img src="styles/default/xenforo/smilies/super_man-48.png" class="mceSmilie" alt=":super:" title="Super Man    :super:"><img src="styles/default/xenforo/smilies/super_man-48.png" class="mceSmilie" alt=":super:" title="Super Man    :super:"><img src="styles/default/xenforo/smilies/super_man-48.png" class="mceSmilie" alt=":super:" title="Super Man    :super:"></span></b>
<div class="messageTextEndMarker">&nbsp;</div>
</blockquote>
</article>]]></description>
                <author><![CDATA[Dream66]]></author>
                </item>

                </channel></rss>